<?xml version="1.0" encoding="iso-8859-1"?>
<!-- Generator: Adobe Illustrator 19.0.0, SVG Export Plug-In . SVG Version: 6.00 Build 0)  -->
<svg version="1.1" id="Layer_1" xmlns="http://www.w3.org/2000/svg" xmlns:xlink="http://www.w3.org/1999/xlink" x="0px" y="0px"
	 viewBox="0 0 512 512" style="enable-background:new 0 0 512 512;" xml:space="preserve">
<circle style="fill:#2BA5F7;" cx="229.83" cy="228.642" r="215.724"/>
<path style="fill:#2197D8;" d="M289.261,384.931c-119.138,0-215.719-96.58-215.719-215.719c0-44.377,13.407-85.62,36.382-119.912
	c-57.77,38.705-95.805,104.577-95.805,179.337c0,119.138,96.58,215.719,215.719,215.719c74.761,0,140.632-38.036,179.337-95.806
	C374.882,371.524,333.638,384.931,289.261,384.931z"/>
<circle style="fill:#A0D5F2;" cx="397.123" cy="320.66" r="100.758"/>
<path style="fill:#BEE9FC;" d="M397.161,389.146c-27.955-0.003-52.848-16.723-63.418-42.6c-6.916-16.93-6.825-35.538,0.256-52.399
	c7.081-16.86,20.304-29.955,37.232-36.87c8.301-3.391,16.999-5.11,25.854-5.11c27.951,0,52.844,16.722,63.415,42.6
	c14.275,34.947-2.542,74.992-37.489,89.268c-8.301,3.391-16.997,5.111-25.846,5.111
	C397.164,389.146,397.163,389.146,397.161,389.146z"/>
<path style="fill:#FFFFFF;" d="M448.365,312.648c1.626,0,3.281-0.309,4.879-0.962c6.605-2.697,9.771-10.239,7.075-16.844
	c-6.896-16.88-19.952-30.065-36.764-37.126c-16.813-7.061-35.368-7.153-52.248-0.256c-6.605,2.697-9.771,10.239-7.075,16.844
	c2.699,6.604,10.243,9.774,16.844,7.074c21.663-8.846,46.479,1.576,55.324,23.235C438.445,309.617,443.273,312.648,448.365,312.648z
	"/>
<g>
	<path style="fill:#333333;" d="M451.794,420.318c49.981-27.361,72.614-88.672,50.562-142.645
		c-17.969-44-60.548-70.702-105.388-70.702c-14.288,0-28.808,2.713-42.837,8.449c-28.11,11.484-50.059,33.226-61.814,61.22
		c-11.756,27.994-11.911,58.895-0.426,87.005c11.484,28.11,33.226,50.059,61.22,61.827c14.171,5.942,29.079,8.927,44,8.927
		c10.335,0,20.669-1.46,30.759-4.315l30.177,73.88c2.041,4.999,6.873,8.035,11.962,8.035c1.628,0,3.281-0.31,4.883-0.956
		c6.601-2.7,9.766-10.244,7.079-16.846L451.794,420.318z M363.109,401.651c-21.625-9.095-38.432-26.056-47.307-47.772
		c-8.875-21.729-8.759-45.602,0.336-67.227c9.082-21.638,26.043-38.445,47.772-47.307c10.839-4.431,22.052-6.524,33.097-6.524
		c34.647,0,67.55,20.618,81.437,54.619c4.418,10.839,6.524,22.052,6.524,33.097c0,34.647-20.631,67.55-54.632,81.437
		C408.62,410.849,384.747,410.733,363.109,401.651z"/>
	<path style="fill:#333333;" d="M455.243,190.139c-8.126-47.901-30.914-91.229-65.884-125.295
		C346.896,23.479,290.882,0.459,231.626,0.019c-1.188-0.026-2.377-0.026-3.565,0C167.383,0.472,110.4,24.448,67.614,67.518
		C24.79,110.639,1.201,167.855,1.201,228.636c0,62.228,24.545,120.399,69.126,163.805c42.463,41.352,98.477,64.372,157.733,64.811
		c0.594,0.013,1.188,0.013,1.783,0.013s1.188,0,1.783-0.013c30.797-0.22,60.665-6.485,88.749-18.615
		c6.55-2.829,9.573-10.425,6.743-16.975s-10.425-9.573-16.975-6.743c-21.444,9.25-44.065,14.649-67.382,16.096v-95.673
		c4.689,0.284,9.366,0.736,13.978,1.344c7.066,0.943,13.564-4.031,14.507-11.097c0.943-7.079-4.031-13.577-11.11-14.507
		c-5.736-0.762-11.549-1.279-17.375-1.615v-67.912h51.828c7.131,0,12.918-5.775,12.918-12.918c0-7.131-5.787-12.918-12.918-12.918
		h-51.828v-67.899c7.661-0.426,15.244-1.24,22.749-2.416c20.54-3.204,40.422-9.172,59.166-17.724
		c6.304,19.881,10.696,41.3,13.009,63.959c0.052,0.491,0.129,0.982,0.233,1.46c1.382,6.33,7.312,10.748,13.926,10.076
		c7.092-0.723,12.259-7.066,11.536-14.159c-0.078-0.814-0.168-1.641-0.271-2.454c-2.7-25.191-7.829-49.051-15.218-71.141
		c3.811-2.299,7.544-4.715,11.226-7.26c7.157-4.909,14.068-10.27,20.695-16.045c26.237,28.743,43.432,63.881,49.955,102.352
		c1.189,7.028,7.867,11.769,14.895,10.567C451.703,203.845,456.431,197.179,455.243,190.139z M151.429,41.5
		c-11.433,13.551-21.625,30.151-30.151,49.4c-7.919-5.038-15.528-10.645-22.762-16.807C114.534,60.439,132.361,49.484,151.429,41.5z
		 M79.874,92.127c10.038,8.746,20.721,16.523,31.934,23.305c-10.218,30.604-16.122,64.837-17.272,100.285H27.451
		C30.332,169.586,48.637,126.374,79.874,92.127z M27.451,241.554h67.085c1.15,35.474,7.053,69.733,17.298,100.35
		c-11.291,6.808-21.974,14.598-31.947,23.266C48.624,330.936,30.332,287.815,27.451,241.554z M98.528,383.178
		c7.196-6.11,14.792-11.717,22.762-16.768c8.526,19.223,18.719,35.771,30.139,49.322C132.374,407.736,114.534,396.82,98.528,383.178
		z M216.925,429.956c-28.369-6.42-54.658-33.717-72.898-76.012c22.814-10.658,47.63-16.988,72.898-18.602V429.956z M216.925,309.466
		c-28.356,1.602-56.234,8.474-81.928,20.191c-8.565-26.986-13.538-56.983-14.624-88.103h96.552V309.466z M216.925,215.717h-96.552
		c1.085-31.094,6.059-61.078,14.611-88.039c25.591,11.678,53.288,18.538,81.941,20.14V215.717z M216.925,121.93
		c-25.527-1.602-50.175-7.919-72.911-18.551c18.228-42.321,44.517-69.643,72.911-76.063V121.93z M254.776,120.819
		c-3.979,0.491-7.984,0.853-12.014,1.111V27.303c19.688,4.457,38.38,18.977,54.063,41.597c6.924,9.973,13.267,21.522,18.848,34.479
		C296.528,112.332,276.013,118.222,254.776,120.819z M340.902,89.272c-0.827,0.555-1.654,1.085-2.493,1.615
		c-0.827-1.86-1.666-3.682-2.519-5.49c-7.971-16.884-17.272-31.598-27.568-43.832c19.029,7.996,36.843,18.912,52.836,32.528
		C354.686,79.609,347.93,84.673,340.902,89.272z"/>
</g>
<ellipse transform="matrix(-0.7071 -0.7071 0.7071 -0.7071 445.4162 446.0893)" style="fill:#6EC6ED;" cx="315.096" cy="130.796" rx="73.841" ry="48.146"/>
<path style="fill:#4D4D4D;" d="M363.109,186.561c-6.885,4.857-15.605,6.963-25.191,6.537c-0.103-0.478-0.181-0.969-0.233-1.46
	c-2.312-22.659-6.705-44.077-13.009-63.959c-18.745,8.552-38.626,14.52-59.166,17.724c-5.064-8.126-8.681-16.497-10.735-24.584
	c21.238-2.597,41.752-8.487,60.897-17.44c-5.581-12.957-11.924-24.506-18.848-34.479c12.57,1.55,26.276,7.183,39.065,16.497
	c0.853,1.809,1.692,3.63,2.519,5.49c0.84-0.53,1.666-1.059,2.493-1.615c2.816,2.312,5.581,4.806,8.255,7.48
	c3.669,3.669,6.989,7.48,9.96,11.407c-3.682,2.545-7.415,4.961-11.226,7.26C355.28,137.51,360.409,161.37,363.109,186.561z"/>
<g>
</g>
<g>
</g>
<g>
</g>
<g>
</g>
<g>
</g>
<g>
</g>
<g>
</g>
<g>
</g>
<g>
</g>
<g>
</g>
<g>
</g>
<g>
</g>
<g>
</g>
<g>
</g>
<g>
</g>
</svg>
